M48
; DRILL file {KiCad 7.0.7} date Sun Jun 23 03:18:31 2024
; FORMAT={-:-/ absolute / metric / decimal}
; #@! TF.CreationDate,2024-06-23T03:18:31-04:00
; #@! TF.GenerationSoftware,Kicad,Pcbnew,7.0.7
; #@! TF.FileFunction,Plated,1,2,PTH
FMAT,2
METRIC
; #@! TA.AperFunction,Plated,PTH,ComponentDrill
T1C0.400
; #@! TA.AperFunction,Plated,PTH,ComponentDrill
T2C2.200
%
G90
G05
T1
X94.35Y-93.0
X94.833Y-91.833
X94.833Y-94.167
X95.35Y-74.1
X95.833Y-72.933
X95.833Y-75.267
X96.0Y-91.35
X96.0Y-94.65
X97.0Y-72.45
X97.0Y-75.75
X97.167Y-91.833
X97.167Y-94.167
X97.65Y-93.0
X98.167Y-72.933
X98.167Y-75.267
X98.65Y-74.1
X121.35Y-74.0
X121.833Y-72.833
X121.833Y-75.167
X122.35Y-93.0
X122.833Y-91.833
X122.833Y-94.167
X123.0Y-72.35
X123.0Y-75.65
X124.0Y-91.35
X124.0Y-94.65
X124.167Y-72.833
X124.167Y-75.167
X124.65Y-74.0
X125.167Y-91.833
X125.167Y-94.167
X125.65Y-93.0
T2
X96.0Y-93.0
X97.0Y-74.1
X123.0Y-74.0
X124.0Y-93.0
T0
M30
