%TF.GenerationSoftware,KiCad,Pcbnew,7.0.7*%
%TF.CreationDate,2024-07-04T01:04:14-04:00*%
%TF.ProjectId,chocV-top,63686f63-562d-4746-9f70-2e6b69636164,rev?*%
%TF.SameCoordinates,Original*%
%TF.FileFunction,Drillmap*%
%TF.FilePolarity,Positive*%
%FSLAX45Y45*%
G04 Gerber Fmt 4.5, Leading zero omitted, Abs format (unit mm)*
G04 Created by KiCad (PCBNEW 7.0.7) date 2024-07-04 01:04:14*
%MOMM*%
%LPD*%
G01*
G04 APERTURE LIST*
%ADD10C,0.150000*%
%ADD11C,0.050000*%
%ADD12C,0.200000*%
%ADD13C,0.040000*%
%ADD14C,0.220000*%
G04 APERTURE END LIST*
D10*
X11390000Y-9500000D02*
G75*
G03*
X10589152Y-9500136I-400000J-2500000D01*
G01*
X9163489Y-9474730D02*
G75*
G03*
X9340000Y-9690000I176511J-35270D01*
G01*
X10590000Y-9500000D02*
X9340000Y-9690000D01*
X12660000Y-9690000D02*
X11390000Y-9500000D01*
X12220001Y-5065270D02*
G75*
G03*
X12023038Y-4900000I-196962J-34730D01*
G01*
X12023038Y-4900000D02*
X9976962Y-4900000D01*
X12220000Y-5065270D02*
X12836504Y-9474699D01*
X9163489Y-9474730D02*
X9780000Y-5065270D01*
X12660000Y-9690000D02*
G75*
G03*
X12836504Y-9474699I0J180000D01*
G01*
D11*
X11220000Y-8800000D02*
G75*
G03*
X11220000Y-8800000I-220000J0D01*
G01*
D10*
X9976962Y-4900002D02*
G75*
G03*
X9780000Y-5065270I-2J-199998D01*
G01*
D12*
D13*
X9415000Y-9280000D02*
X9455000Y-9320000D01*
X9455000Y-9280000D02*
X9415000Y-9320000D01*
X9463327Y-9163327D02*
X9503327Y-9203327D01*
X9503327Y-9163327D02*
X9463327Y-9203327D01*
X9463327Y-9396673D02*
X9503327Y-9436673D01*
X9503327Y-9396673D02*
X9463327Y-9436673D01*
X9515000Y-7390000D02*
X9555000Y-7430000D01*
X9555000Y-7390000D02*
X9515000Y-7430000D01*
X9563327Y-7273327D02*
X9603327Y-7313327D01*
X9603327Y-7273327D02*
X9563327Y-7313327D01*
X9563327Y-7506673D02*
X9603327Y-7546673D01*
X9603327Y-7506673D02*
X9563327Y-7546673D01*
X9580000Y-9115000D02*
X9620000Y-9155000D01*
X9620000Y-9115000D02*
X9580000Y-9155000D01*
X9580000Y-9445000D02*
X9620000Y-9485000D01*
X9620000Y-9445000D02*
X9580000Y-9485000D01*
X9680000Y-7225000D02*
X9720000Y-7265000D01*
X9720000Y-7225000D02*
X9680000Y-7265000D01*
X9680000Y-7555000D02*
X9720000Y-7595000D01*
X9720000Y-7555000D02*
X9680000Y-7595000D01*
X9696673Y-9163327D02*
X9736673Y-9203327D01*
X9736673Y-9163327D02*
X9696673Y-9203327D01*
X9696673Y-9396673D02*
X9736673Y-9436673D01*
X9736673Y-9396673D02*
X9696673Y-9436673D01*
X9745000Y-9280000D02*
X9785000Y-9320000D01*
X9785000Y-9280000D02*
X9745000Y-9320000D01*
X9796673Y-7273327D02*
X9836673Y-7313327D01*
X9836673Y-7273327D02*
X9796673Y-7313327D01*
X9796673Y-7506673D02*
X9836673Y-7546673D01*
X9836673Y-7506673D02*
X9796673Y-7546673D01*
X9845000Y-7390000D02*
X9885000Y-7430000D01*
X9885000Y-7390000D02*
X9845000Y-7430000D01*
X12115000Y-7380000D02*
X12155000Y-7420000D01*
X12155000Y-7380000D02*
X12115000Y-7420000D01*
X12163327Y-7263327D02*
X12203327Y-7303327D01*
X12203327Y-7263327D02*
X12163327Y-7303327D01*
X12163327Y-7496673D02*
X12203327Y-7536673D01*
X12203327Y-7496673D02*
X12163327Y-7536673D01*
X12215000Y-9280000D02*
X12255000Y-9320000D01*
X12255000Y-9280000D02*
X12215000Y-9320000D01*
X12263327Y-9163327D02*
X12303327Y-9203327D01*
X12303327Y-9163327D02*
X12263327Y-9203327D01*
X12263327Y-9396673D02*
X12303327Y-9436673D01*
X12303327Y-9396673D02*
X12263327Y-9436673D01*
X12280000Y-7215000D02*
X12320000Y-7255000D01*
X12320000Y-7215000D02*
X12280000Y-7255000D01*
X12280000Y-7545000D02*
X12320000Y-7585000D01*
X12320000Y-7545000D02*
X12280000Y-7585000D01*
X12380000Y-9115000D02*
X12420000Y-9155000D01*
X12420000Y-9115000D02*
X12380000Y-9155000D01*
X12380000Y-9445000D02*
X12420000Y-9485000D01*
X12420000Y-9445000D02*
X12380000Y-9485000D01*
X12396673Y-7263327D02*
X12436673Y-7303327D01*
X12436673Y-7263327D02*
X12396673Y-7303327D01*
X12396673Y-7496673D02*
X12436673Y-7536673D01*
X12436673Y-7496673D02*
X12396673Y-7536673D01*
X12445000Y-7380000D02*
X12485000Y-7420000D01*
X12485000Y-7380000D02*
X12445000Y-7420000D01*
X12496673Y-9163327D02*
X12536673Y-9203327D01*
X12536673Y-9163327D02*
X12496673Y-9203327D01*
X12496673Y-9396673D02*
X12536673Y-9436673D01*
X12536673Y-9396673D02*
X12496673Y-9436673D01*
X12545000Y-9280000D02*
X12585000Y-9320000D01*
X12585000Y-9280000D02*
X12545000Y-9320000D01*
D14*
X9710000Y-9300000D02*
G75*
G03*
X9710000Y-9300000I-110000J0D01*
G01*
X9810000Y-7410000D02*
G75*
G03*
X9810000Y-7410000I-110000J0D01*
G01*
X12410000Y-7410000D02*
G75*
G03*
X12410000Y-7410000I-110000J0D01*
G01*
X12510000Y-9300000D02*
G75*
G03*
X12510000Y-9300000I-110000J0D01*
G01*
D12*
X9413277Y-10008984D02*
X9413277Y-9808984D01*
X9413277Y-9808984D02*
X9460896Y-9808984D01*
X9460896Y-9808984D02*
X9489467Y-9818508D01*
X9489467Y-9818508D02*
X9508515Y-9837555D01*
X9508515Y-9837555D02*
X9518039Y-9856603D01*
X9518039Y-9856603D02*
X9527563Y-9894698D01*
X9527563Y-9894698D02*
X9527563Y-9923270D01*
X9527563Y-9923270D02*
X9518039Y-9961365D01*
X9518039Y-9961365D02*
X9508515Y-9980412D01*
X9508515Y-9980412D02*
X9489467Y-9999460D01*
X9489467Y-9999460D02*
X9460896Y-10008984D01*
X9460896Y-10008984D02*
X9413277Y-10008984D01*
X9613277Y-10008984D02*
X9613277Y-9875650D01*
X9613277Y-9913746D02*
X9622801Y-9894698D01*
X9622801Y-9894698D02*
X9632324Y-9885174D01*
X9632324Y-9885174D02*
X9651372Y-9875650D01*
X9651372Y-9875650D02*
X9670420Y-9875650D01*
X9737086Y-10008984D02*
X9737086Y-9875650D01*
X9737086Y-9808984D02*
X9727563Y-9818508D01*
X9727563Y-9818508D02*
X9737086Y-9828031D01*
X9737086Y-9828031D02*
X9746610Y-9818508D01*
X9746610Y-9818508D02*
X9737086Y-9808984D01*
X9737086Y-9808984D02*
X9737086Y-9828031D01*
X9860896Y-10008984D02*
X9841848Y-9999460D01*
X9841848Y-9999460D02*
X9832324Y-9980412D01*
X9832324Y-9980412D02*
X9832324Y-9808984D01*
X9965658Y-10008984D02*
X9946610Y-9999460D01*
X9946610Y-9999460D02*
X9937086Y-9980412D01*
X9937086Y-9980412D02*
X9937086Y-9808984D01*
X10194229Y-10008984D02*
X10194229Y-9808984D01*
X10194229Y-9808984D02*
X10260896Y-9951841D01*
X10260896Y-9951841D02*
X10327563Y-9808984D01*
X10327563Y-9808984D02*
X10327563Y-10008984D01*
X10508515Y-10008984D02*
X10508515Y-9904222D01*
X10508515Y-9904222D02*
X10498991Y-9885174D01*
X10498991Y-9885174D02*
X10479944Y-9875650D01*
X10479944Y-9875650D02*
X10441848Y-9875650D01*
X10441848Y-9875650D02*
X10422801Y-9885174D01*
X10508515Y-9999460D02*
X10489467Y-10008984D01*
X10489467Y-10008984D02*
X10441848Y-10008984D01*
X10441848Y-10008984D02*
X10422801Y-9999460D01*
X10422801Y-9999460D02*
X10413277Y-9980412D01*
X10413277Y-9980412D02*
X10413277Y-9961365D01*
X10413277Y-9961365D02*
X10422801Y-9942317D01*
X10422801Y-9942317D02*
X10441848Y-9932793D01*
X10441848Y-9932793D02*
X10489467Y-9932793D01*
X10489467Y-9932793D02*
X10508515Y-9923270D01*
X10603753Y-9875650D02*
X10603753Y-10075650D01*
X10603753Y-9885174D02*
X10622801Y-9875650D01*
X10622801Y-9875650D02*
X10660896Y-9875650D01*
X10660896Y-9875650D02*
X10679944Y-9885174D01*
X10679944Y-9885174D02*
X10689467Y-9894698D01*
X10689467Y-9894698D02*
X10698991Y-9913746D01*
X10698991Y-9913746D02*
X10698991Y-9970889D01*
X10698991Y-9970889D02*
X10689467Y-9989936D01*
X10689467Y-9989936D02*
X10679944Y-9999460D01*
X10679944Y-9999460D02*
X10660896Y-10008984D01*
X10660896Y-10008984D02*
X10622801Y-10008984D01*
X10622801Y-10008984D02*
X10603753Y-9999460D01*
X10784705Y-9989936D02*
X10794229Y-9999460D01*
X10794229Y-9999460D02*
X10784705Y-10008984D01*
X10784705Y-10008984D02*
X10775182Y-9999460D01*
X10775182Y-9999460D02*
X10784705Y-9989936D01*
X10784705Y-9989936D02*
X10784705Y-10008984D01*
X10784705Y-9885174D02*
X10794229Y-9894698D01*
X10794229Y-9894698D02*
X10784705Y-9904222D01*
X10784705Y-9904222D02*
X10775182Y-9894698D01*
X10775182Y-9894698D02*
X10784705Y-9885174D01*
X10784705Y-9885174D02*
X10784705Y-9904222D01*
D13*
X9112500Y-10317500D02*
X9152500Y-10357500D01*
X9152500Y-10317500D02*
X9112500Y-10357500D01*
D12*
X9451372Y-10228984D02*
X9470420Y-10228984D01*
X9470420Y-10228984D02*
X9489467Y-10238508D01*
X9489467Y-10238508D02*
X9498991Y-10248031D01*
X9498991Y-10248031D02*
X9508515Y-10267079D01*
X9508515Y-10267079D02*
X9518039Y-10305174D01*
X9518039Y-10305174D02*
X9518039Y-10352793D01*
X9518039Y-10352793D02*
X9508515Y-10390889D01*
X9508515Y-10390889D02*
X9498991Y-10409936D01*
X9498991Y-10409936D02*
X9489467Y-10419460D01*
X9489467Y-10419460D02*
X9470420Y-10428984D01*
X9470420Y-10428984D02*
X9451372Y-10428984D01*
X9451372Y-10428984D02*
X9432324Y-10419460D01*
X9432324Y-10419460D02*
X9422801Y-10409936D01*
X9422801Y-10409936D02*
X9413277Y-10390889D01*
X9413277Y-10390889D02*
X9403753Y-10352793D01*
X9403753Y-10352793D02*
X9403753Y-10305174D01*
X9403753Y-10305174D02*
X9413277Y-10267079D01*
X9413277Y-10267079D02*
X9422801Y-10248031D01*
X9422801Y-10248031D02*
X9432324Y-10238508D01*
X9432324Y-10238508D02*
X9451372Y-10228984D01*
X9603753Y-10409936D02*
X9613277Y-10419460D01*
X9613277Y-10419460D02*
X9603753Y-10428984D01*
X9603753Y-10428984D02*
X9594229Y-10419460D01*
X9594229Y-10419460D02*
X9603753Y-10409936D01*
X9603753Y-10409936D02*
X9603753Y-10428984D01*
X9784705Y-10295650D02*
X9784705Y-10428984D01*
X9737086Y-10219460D02*
X9689467Y-10362317D01*
X9689467Y-10362317D02*
X9813277Y-10362317D01*
X9927563Y-10228984D02*
X9946610Y-10228984D01*
X9946610Y-10228984D02*
X9965658Y-10238508D01*
X9965658Y-10238508D02*
X9975182Y-10248031D01*
X9975182Y-10248031D02*
X9984705Y-10267079D01*
X9984705Y-10267079D02*
X9994229Y-10305174D01*
X9994229Y-10305174D02*
X9994229Y-10352793D01*
X9994229Y-10352793D02*
X9984705Y-10390889D01*
X9984705Y-10390889D02*
X9975182Y-10409936D01*
X9975182Y-10409936D02*
X9965658Y-10419460D01*
X9965658Y-10419460D02*
X9946610Y-10428984D01*
X9946610Y-10428984D02*
X9927563Y-10428984D01*
X9927563Y-10428984D02*
X9908515Y-10419460D01*
X9908515Y-10419460D02*
X9898991Y-10409936D01*
X9898991Y-10409936D02*
X9889467Y-10390889D01*
X9889467Y-10390889D02*
X9879944Y-10352793D01*
X9879944Y-10352793D02*
X9879944Y-10305174D01*
X9879944Y-10305174D02*
X9889467Y-10267079D01*
X9889467Y-10267079D02*
X9898991Y-10248031D01*
X9898991Y-10248031D02*
X9908515Y-10238508D01*
X9908515Y-10238508D02*
X9927563Y-10228984D01*
X10118039Y-10228984D02*
X10137086Y-10228984D01*
X10137086Y-10228984D02*
X10156134Y-10238508D01*
X10156134Y-10238508D02*
X10165658Y-10248031D01*
X10165658Y-10248031D02*
X10175182Y-10267079D01*
X10175182Y-10267079D02*
X10184705Y-10305174D01*
X10184705Y-10305174D02*
X10184705Y-10352793D01*
X10184705Y-10352793D02*
X10175182Y-10390889D01*
X10175182Y-10390889D02*
X10165658Y-10409936D01*
X10165658Y-10409936D02*
X10156134Y-10419460D01*
X10156134Y-10419460D02*
X10137086Y-10428984D01*
X10137086Y-10428984D02*
X10118039Y-10428984D01*
X10118039Y-10428984D02*
X10098991Y-10419460D01*
X10098991Y-10419460D02*
X10089467Y-10409936D01*
X10089467Y-10409936D02*
X10079944Y-10390889D01*
X10079944Y-10390889D02*
X10070420Y-10352793D01*
X10070420Y-10352793D02*
X10070420Y-10305174D01*
X10070420Y-10305174D02*
X10079944Y-10267079D01*
X10079944Y-10267079D02*
X10089467Y-10248031D01*
X10089467Y-10248031D02*
X10098991Y-10238508D01*
X10098991Y-10238508D02*
X10118039Y-10228984D01*
X10270420Y-10428984D02*
X10270420Y-10295650D01*
X10270420Y-10314698D02*
X10279944Y-10305174D01*
X10279944Y-10305174D02*
X10298991Y-10295650D01*
X10298991Y-10295650D02*
X10327563Y-10295650D01*
X10327563Y-10295650D02*
X10346610Y-10305174D01*
X10346610Y-10305174D02*
X10356134Y-10324222D01*
X10356134Y-10324222D02*
X10356134Y-10428984D01*
X10356134Y-10324222D02*
X10365658Y-10305174D01*
X10365658Y-10305174D02*
X10384705Y-10295650D01*
X10384705Y-10295650D02*
X10413277Y-10295650D01*
X10413277Y-10295650D02*
X10432325Y-10305174D01*
X10432325Y-10305174D02*
X10441848Y-10324222D01*
X10441848Y-10324222D02*
X10441848Y-10428984D01*
X10537086Y-10428984D02*
X10537086Y-10295650D01*
X10537086Y-10314698D02*
X10546610Y-10305174D01*
X10546610Y-10305174D02*
X10565658Y-10295650D01*
X10565658Y-10295650D02*
X10594229Y-10295650D01*
X10594229Y-10295650D02*
X10613277Y-10305174D01*
X10613277Y-10305174D02*
X10622801Y-10324222D01*
X10622801Y-10324222D02*
X10622801Y-10428984D01*
X10622801Y-10324222D02*
X10632325Y-10305174D01*
X10632325Y-10305174D02*
X10651372Y-10295650D01*
X10651372Y-10295650D02*
X10679944Y-10295650D01*
X10679944Y-10295650D02*
X10698991Y-10305174D01*
X10698991Y-10305174D02*
X10708515Y-10324222D01*
X10708515Y-10324222D02*
X10708515Y-10428984D01*
X11098991Y-10219460D02*
X10927563Y-10476603D01*
X11356134Y-10228984D02*
X11375182Y-10228984D01*
X11375182Y-10228984D02*
X11394229Y-10238508D01*
X11394229Y-10238508D02*
X11403753Y-10248031D01*
X11403753Y-10248031D02*
X11413277Y-10267079D01*
X11413277Y-10267079D02*
X11422801Y-10305174D01*
X11422801Y-10305174D02*
X11422801Y-10352793D01*
X11422801Y-10352793D02*
X11413277Y-10390889D01*
X11413277Y-10390889D02*
X11403753Y-10409936D01*
X11403753Y-10409936D02*
X11394229Y-10419460D01*
X11394229Y-10419460D02*
X11375182Y-10428984D01*
X11375182Y-10428984D02*
X11356134Y-10428984D01*
X11356134Y-10428984D02*
X11337086Y-10419460D01*
X11337086Y-10419460D02*
X11327563Y-10409936D01*
X11327563Y-10409936D02*
X11318039Y-10390889D01*
X11318039Y-10390889D02*
X11308515Y-10352793D01*
X11308515Y-10352793D02*
X11308515Y-10305174D01*
X11308515Y-10305174D02*
X11318039Y-10267079D01*
X11318039Y-10267079D02*
X11327563Y-10248031D01*
X11327563Y-10248031D02*
X11337086Y-10238508D01*
X11337086Y-10238508D02*
X11356134Y-10228984D01*
X11508515Y-10409936D02*
X11518039Y-10419460D01*
X11518039Y-10419460D02*
X11508515Y-10428984D01*
X11508515Y-10428984D02*
X11498991Y-10419460D01*
X11498991Y-10419460D02*
X11508515Y-10409936D01*
X11508515Y-10409936D02*
X11508515Y-10428984D01*
X11641848Y-10228984D02*
X11660896Y-10228984D01*
X11660896Y-10228984D02*
X11679944Y-10238508D01*
X11679944Y-10238508D02*
X11689467Y-10248031D01*
X11689467Y-10248031D02*
X11698991Y-10267079D01*
X11698991Y-10267079D02*
X11708515Y-10305174D01*
X11708515Y-10305174D02*
X11708515Y-10352793D01*
X11708515Y-10352793D02*
X11698991Y-10390889D01*
X11698991Y-10390889D02*
X11689467Y-10409936D01*
X11689467Y-10409936D02*
X11679944Y-10419460D01*
X11679944Y-10419460D02*
X11660896Y-10428984D01*
X11660896Y-10428984D02*
X11641848Y-10428984D01*
X11641848Y-10428984D02*
X11622801Y-10419460D01*
X11622801Y-10419460D02*
X11613277Y-10409936D01*
X11613277Y-10409936D02*
X11603753Y-10390889D01*
X11603753Y-10390889D02*
X11594229Y-10352793D01*
X11594229Y-10352793D02*
X11594229Y-10305174D01*
X11594229Y-10305174D02*
X11603753Y-10267079D01*
X11603753Y-10267079D02*
X11613277Y-10248031D01*
X11613277Y-10248031D02*
X11622801Y-10238508D01*
X11622801Y-10238508D02*
X11641848Y-10228984D01*
X11898991Y-10428984D02*
X11784706Y-10428984D01*
X11841848Y-10428984D02*
X11841848Y-10228984D01*
X11841848Y-10228984D02*
X11822801Y-10257555D01*
X11822801Y-10257555D02*
X11803753Y-10276603D01*
X11803753Y-10276603D02*
X11784706Y-10286127D01*
X12079944Y-10228984D02*
X11984706Y-10228984D01*
X11984706Y-10228984D02*
X11975182Y-10324222D01*
X11975182Y-10324222D02*
X11984706Y-10314698D01*
X11984706Y-10314698D02*
X12003753Y-10305174D01*
X12003753Y-10305174D02*
X12051372Y-10305174D01*
X12051372Y-10305174D02*
X12070420Y-10314698D01*
X12070420Y-10314698D02*
X12079944Y-10324222D01*
X12079944Y-10324222D02*
X12089467Y-10343270D01*
X12089467Y-10343270D02*
X12089467Y-10390889D01*
X12089467Y-10390889D02*
X12079944Y-10409936D01*
X12079944Y-10409936D02*
X12070420Y-10419460D01*
X12070420Y-10419460D02*
X12051372Y-10428984D01*
X12051372Y-10428984D02*
X12003753Y-10428984D01*
X12003753Y-10428984D02*
X11984706Y-10419460D01*
X11984706Y-10419460D02*
X11975182Y-10409936D01*
X12156134Y-10228984D02*
X12289467Y-10228984D01*
X12289467Y-10228984D02*
X12203753Y-10428984D01*
X12356134Y-10228984D02*
X12356134Y-10267079D01*
X12432325Y-10228984D02*
X12432325Y-10267079D01*
X12727563Y-10505174D02*
X12718039Y-10495650D01*
X12718039Y-10495650D02*
X12698991Y-10467079D01*
X12698991Y-10467079D02*
X12689468Y-10448031D01*
X12689468Y-10448031D02*
X12679944Y-10419460D01*
X12679944Y-10419460D02*
X12670420Y-10371841D01*
X12670420Y-10371841D02*
X12670420Y-10333746D01*
X12670420Y-10333746D02*
X12679944Y-10286127D01*
X12679944Y-10286127D02*
X12689468Y-10257555D01*
X12689468Y-10257555D02*
X12698991Y-10238508D01*
X12698991Y-10238508D02*
X12718039Y-10209936D01*
X12718039Y-10209936D02*
X12727563Y-10200412D01*
X12784706Y-10228984D02*
X12908515Y-10228984D01*
X12908515Y-10228984D02*
X12841848Y-10305174D01*
X12841848Y-10305174D02*
X12870420Y-10305174D01*
X12870420Y-10305174D02*
X12889468Y-10314698D01*
X12889468Y-10314698D02*
X12898991Y-10324222D01*
X12898991Y-10324222D02*
X12908515Y-10343270D01*
X12908515Y-10343270D02*
X12908515Y-10390889D01*
X12908515Y-10390889D02*
X12898991Y-10409936D01*
X12898991Y-10409936D02*
X12889468Y-10419460D01*
X12889468Y-10419460D02*
X12870420Y-10428984D01*
X12870420Y-10428984D02*
X12813277Y-10428984D01*
X12813277Y-10428984D02*
X12794229Y-10419460D01*
X12794229Y-10419460D02*
X12784706Y-10409936D01*
X12984706Y-10248031D02*
X12994229Y-10238508D01*
X12994229Y-10238508D02*
X13013277Y-10228984D01*
X13013277Y-10228984D02*
X13060896Y-10228984D01*
X13060896Y-10228984D02*
X13079944Y-10238508D01*
X13079944Y-10238508D02*
X13089468Y-10248031D01*
X13089468Y-10248031D02*
X13098991Y-10267079D01*
X13098991Y-10267079D02*
X13098991Y-10286127D01*
X13098991Y-10286127D02*
X13089468Y-10314698D01*
X13089468Y-10314698D02*
X12975182Y-10428984D01*
X12975182Y-10428984D02*
X13098991Y-10428984D01*
X13337087Y-10428984D02*
X13337087Y-10228984D01*
X13422801Y-10428984D02*
X13422801Y-10324222D01*
X13422801Y-10324222D02*
X13413277Y-10305174D01*
X13413277Y-10305174D02*
X13394230Y-10295650D01*
X13394230Y-10295650D02*
X13365658Y-10295650D01*
X13365658Y-10295650D02*
X13346610Y-10305174D01*
X13346610Y-10305174D02*
X13337087Y-10314698D01*
X13546610Y-10428984D02*
X13527563Y-10419460D01*
X13527563Y-10419460D02*
X13518039Y-10409936D01*
X13518039Y-10409936D02*
X13508515Y-10390889D01*
X13508515Y-10390889D02*
X13508515Y-10333746D01*
X13508515Y-10333746D02*
X13518039Y-10314698D01*
X13518039Y-10314698D02*
X13527563Y-10305174D01*
X13527563Y-10305174D02*
X13546610Y-10295650D01*
X13546610Y-10295650D02*
X13575182Y-10295650D01*
X13575182Y-10295650D02*
X13594230Y-10305174D01*
X13594230Y-10305174D02*
X13603753Y-10314698D01*
X13603753Y-10314698D02*
X13613277Y-10333746D01*
X13613277Y-10333746D02*
X13613277Y-10390889D01*
X13613277Y-10390889D02*
X13603753Y-10409936D01*
X13603753Y-10409936D02*
X13594230Y-10419460D01*
X13594230Y-10419460D02*
X13575182Y-10428984D01*
X13575182Y-10428984D02*
X13546610Y-10428984D01*
X13727563Y-10428984D02*
X13708515Y-10419460D01*
X13708515Y-10419460D02*
X13698991Y-10400412D01*
X13698991Y-10400412D02*
X13698991Y-10228984D01*
X13879944Y-10419460D02*
X13860896Y-10428984D01*
X13860896Y-10428984D02*
X13822801Y-10428984D01*
X13822801Y-10428984D02*
X13803753Y-10419460D01*
X13803753Y-10419460D02*
X13794230Y-10400412D01*
X13794230Y-10400412D02*
X13794230Y-10324222D01*
X13794230Y-10324222D02*
X13803753Y-10305174D01*
X13803753Y-10305174D02*
X13822801Y-10295650D01*
X13822801Y-10295650D02*
X13860896Y-10295650D01*
X13860896Y-10295650D02*
X13879944Y-10305174D01*
X13879944Y-10305174D02*
X13889468Y-10324222D01*
X13889468Y-10324222D02*
X13889468Y-10343270D01*
X13889468Y-10343270D02*
X13794230Y-10362317D01*
X13965658Y-10419460D02*
X13984706Y-10428984D01*
X13984706Y-10428984D02*
X14022801Y-10428984D01*
X14022801Y-10428984D02*
X14041849Y-10419460D01*
X14041849Y-10419460D02*
X14051372Y-10400412D01*
X14051372Y-10400412D02*
X14051372Y-10390889D01*
X14051372Y-10390889D02*
X14041849Y-10371841D01*
X14041849Y-10371841D02*
X14022801Y-10362317D01*
X14022801Y-10362317D02*
X13994230Y-10362317D01*
X13994230Y-10362317D02*
X13975182Y-10352793D01*
X13975182Y-10352793D02*
X13965658Y-10333746D01*
X13965658Y-10333746D02*
X13965658Y-10324222D01*
X13965658Y-10324222D02*
X13975182Y-10305174D01*
X13975182Y-10305174D02*
X13994230Y-10295650D01*
X13994230Y-10295650D02*
X14022801Y-10295650D01*
X14022801Y-10295650D02*
X14041849Y-10305174D01*
X14118039Y-10505174D02*
X14127563Y-10495650D01*
X14127563Y-10495650D02*
X14146611Y-10467079D01*
X14146611Y-10467079D02*
X14156134Y-10448031D01*
X14156134Y-10448031D02*
X14165658Y-10419460D01*
X14165658Y-10419460D02*
X14175182Y-10371841D01*
X14175182Y-10371841D02*
X14175182Y-10333746D01*
X14175182Y-10333746D02*
X14165658Y-10286127D01*
X14165658Y-10286127D02*
X14156134Y-10257555D01*
X14156134Y-10257555D02*
X14146611Y-10238508D01*
X14146611Y-10238508D02*
X14127563Y-10209936D01*
X14127563Y-10209936D02*
X14118039Y-10200412D01*
X9152500Y-10601500D02*
G75*
G03*
X9152500Y-10601500I-100000J0D01*
G01*
X9403753Y-10512031D02*
X9413277Y-10502508D01*
X9413277Y-10502508D02*
X9432324Y-10492984D01*
X9432324Y-10492984D02*
X9479944Y-10492984D01*
X9479944Y-10492984D02*
X9498991Y-10502508D01*
X9498991Y-10502508D02*
X9508515Y-10512031D01*
X9508515Y-10512031D02*
X9518039Y-10531079D01*
X9518039Y-10531079D02*
X9518039Y-10550127D01*
X9518039Y-10550127D02*
X9508515Y-10578698D01*
X9508515Y-10578698D02*
X9394229Y-10692984D01*
X9394229Y-10692984D02*
X9518039Y-10692984D01*
X9603753Y-10673936D02*
X9613277Y-10683460D01*
X9613277Y-10683460D02*
X9603753Y-10692984D01*
X9603753Y-10692984D02*
X9594229Y-10683460D01*
X9594229Y-10683460D02*
X9603753Y-10673936D01*
X9603753Y-10673936D02*
X9603753Y-10692984D01*
X9689467Y-10512031D02*
X9698991Y-10502508D01*
X9698991Y-10502508D02*
X9718039Y-10492984D01*
X9718039Y-10492984D02*
X9765658Y-10492984D01*
X9765658Y-10492984D02*
X9784705Y-10502508D01*
X9784705Y-10502508D02*
X9794229Y-10512031D01*
X9794229Y-10512031D02*
X9803753Y-10531079D01*
X9803753Y-10531079D02*
X9803753Y-10550127D01*
X9803753Y-10550127D02*
X9794229Y-10578698D01*
X9794229Y-10578698D02*
X9679944Y-10692984D01*
X9679944Y-10692984D02*
X9803753Y-10692984D01*
X9927563Y-10492984D02*
X9946610Y-10492984D01*
X9946610Y-10492984D02*
X9965658Y-10502508D01*
X9965658Y-10502508D02*
X9975182Y-10512031D01*
X9975182Y-10512031D02*
X9984705Y-10531079D01*
X9984705Y-10531079D02*
X9994229Y-10569174D01*
X9994229Y-10569174D02*
X9994229Y-10616793D01*
X9994229Y-10616793D02*
X9984705Y-10654889D01*
X9984705Y-10654889D02*
X9975182Y-10673936D01*
X9975182Y-10673936D02*
X9965658Y-10683460D01*
X9965658Y-10683460D02*
X9946610Y-10692984D01*
X9946610Y-10692984D02*
X9927563Y-10692984D01*
X9927563Y-10692984D02*
X9908515Y-10683460D01*
X9908515Y-10683460D02*
X9898991Y-10673936D01*
X9898991Y-10673936D02*
X9889467Y-10654889D01*
X9889467Y-10654889D02*
X9879944Y-10616793D01*
X9879944Y-10616793D02*
X9879944Y-10569174D01*
X9879944Y-10569174D02*
X9889467Y-10531079D01*
X9889467Y-10531079D02*
X9898991Y-10512031D01*
X9898991Y-10512031D02*
X9908515Y-10502508D01*
X9908515Y-10502508D02*
X9927563Y-10492984D01*
X10118039Y-10492984D02*
X10137086Y-10492984D01*
X10137086Y-10492984D02*
X10156134Y-10502508D01*
X10156134Y-10502508D02*
X10165658Y-10512031D01*
X10165658Y-10512031D02*
X10175182Y-10531079D01*
X10175182Y-10531079D02*
X10184705Y-10569174D01*
X10184705Y-10569174D02*
X10184705Y-10616793D01*
X10184705Y-10616793D02*
X10175182Y-10654889D01*
X10175182Y-10654889D02*
X10165658Y-10673936D01*
X10165658Y-10673936D02*
X10156134Y-10683460D01*
X10156134Y-10683460D02*
X10137086Y-10692984D01*
X10137086Y-10692984D02*
X10118039Y-10692984D01*
X10118039Y-10692984D02*
X10098991Y-10683460D01*
X10098991Y-10683460D02*
X10089467Y-10673936D01*
X10089467Y-10673936D02*
X10079944Y-10654889D01*
X10079944Y-10654889D02*
X10070420Y-10616793D01*
X10070420Y-10616793D02*
X10070420Y-10569174D01*
X10070420Y-10569174D02*
X10079944Y-10531079D01*
X10079944Y-10531079D02*
X10089467Y-10512031D01*
X10089467Y-10512031D02*
X10098991Y-10502508D01*
X10098991Y-10502508D02*
X10118039Y-10492984D01*
X10270420Y-10692984D02*
X10270420Y-10559650D01*
X10270420Y-10578698D02*
X10279944Y-10569174D01*
X10279944Y-10569174D02*
X10298991Y-10559650D01*
X10298991Y-10559650D02*
X10327563Y-10559650D01*
X10327563Y-10559650D02*
X10346610Y-10569174D01*
X10346610Y-10569174D02*
X10356134Y-10588222D01*
X10356134Y-10588222D02*
X10356134Y-10692984D01*
X10356134Y-10588222D02*
X10365658Y-10569174D01*
X10365658Y-10569174D02*
X10384705Y-10559650D01*
X10384705Y-10559650D02*
X10413277Y-10559650D01*
X10413277Y-10559650D02*
X10432325Y-10569174D01*
X10432325Y-10569174D02*
X10441848Y-10588222D01*
X10441848Y-10588222D02*
X10441848Y-10692984D01*
X10537086Y-10692984D02*
X10537086Y-10559650D01*
X10537086Y-10578698D02*
X10546610Y-10569174D01*
X10546610Y-10569174D02*
X10565658Y-10559650D01*
X10565658Y-10559650D02*
X10594229Y-10559650D01*
X10594229Y-10559650D02*
X10613277Y-10569174D01*
X10613277Y-10569174D02*
X10622801Y-10588222D01*
X10622801Y-10588222D02*
X10622801Y-10692984D01*
X10622801Y-10588222D02*
X10632325Y-10569174D01*
X10632325Y-10569174D02*
X10651372Y-10559650D01*
X10651372Y-10559650D02*
X10679944Y-10559650D01*
X10679944Y-10559650D02*
X10698991Y-10569174D01*
X10698991Y-10569174D02*
X10708515Y-10588222D01*
X10708515Y-10588222D02*
X10708515Y-10692984D01*
X11098991Y-10483460D02*
X10927563Y-10740603D01*
X11356134Y-10492984D02*
X11375182Y-10492984D01*
X11375182Y-10492984D02*
X11394229Y-10502508D01*
X11394229Y-10502508D02*
X11403753Y-10512031D01*
X11403753Y-10512031D02*
X11413277Y-10531079D01*
X11413277Y-10531079D02*
X11422801Y-10569174D01*
X11422801Y-10569174D02*
X11422801Y-10616793D01*
X11422801Y-10616793D02*
X11413277Y-10654889D01*
X11413277Y-10654889D02*
X11403753Y-10673936D01*
X11403753Y-10673936D02*
X11394229Y-10683460D01*
X11394229Y-10683460D02*
X11375182Y-10692984D01*
X11375182Y-10692984D02*
X11356134Y-10692984D01*
X11356134Y-10692984D02*
X11337086Y-10683460D01*
X11337086Y-10683460D02*
X11327563Y-10673936D01*
X11327563Y-10673936D02*
X11318039Y-10654889D01*
X11318039Y-10654889D02*
X11308515Y-10616793D01*
X11308515Y-10616793D02*
X11308515Y-10569174D01*
X11308515Y-10569174D02*
X11318039Y-10531079D01*
X11318039Y-10531079D02*
X11327563Y-10512031D01*
X11327563Y-10512031D02*
X11337086Y-10502508D01*
X11337086Y-10502508D02*
X11356134Y-10492984D01*
X11508515Y-10673936D02*
X11518039Y-10683460D01*
X11518039Y-10683460D02*
X11508515Y-10692984D01*
X11508515Y-10692984D02*
X11498991Y-10683460D01*
X11498991Y-10683460D02*
X11508515Y-10673936D01*
X11508515Y-10673936D02*
X11508515Y-10692984D01*
X11641848Y-10492984D02*
X11660896Y-10492984D01*
X11660896Y-10492984D02*
X11679944Y-10502508D01*
X11679944Y-10502508D02*
X11689467Y-10512031D01*
X11689467Y-10512031D02*
X11698991Y-10531079D01*
X11698991Y-10531079D02*
X11708515Y-10569174D01*
X11708515Y-10569174D02*
X11708515Y-10616793D01*
X11708515Y-10616793D02*
X11698991Y-10654889D01*
X11698991Y-10654889D02*
X11689467Y-10673936D01*
X11689467Y-10673936D02*
X11679944Y-10683460D01*
X11679944Y-10683460D02*
X11660896Y-10692984D01*
X11660896Y-10692984D02*
X11641848Y-10692984D01*
X11641848Y-10692984D02*
X11622801Y-10683460D01*
X11622801Y-10683460D02*
X11613277Y-10673936D01*
X11613277Y-10673936D02*
X11603753Y-10654889D01*
X11603753Y-10654889D02*
X11594229Y-10616793D01*
X11594229Y-10616793D02*
X11594229Y-10569174D01*
X11594229Y-10569174D02*
X11603753Y-10531079D01*
X11603753Y-10531079D02*
X11613277Y-10512031D01*
X11613277Y-10512031D02*
X11622801Y-10502508D01*
X11622801Y-10502508D02*
X11641848Y-10492984D01*
X11822801Y-10578698D02*
X11803753Y-10569174D01*
X11803753Y-10569174D02*
X11794229Y-10559650D01*
X11794229Y-10559650D02*
X11784706Y-10540603D01*
X11784706Y-10540603D02*
X11784706Y-10531079D01*
X11784706Y-10531079D02*
X11794229Y-10512031D01*
X11794229Y-10512031D02*
X11803753Y-10502508D01*
X11803753Y-10502508D02*
X11822801Y-10492984D01*
X11822801Y-10492984D02*
X11860896Y-10492984D01*
X11860896Y-10492984D02*
X11879944Y-10502508D01*
X11879944Y-10502508D02*
X11889467Y-10512031D01*
X11889467Y-10512031D02*
X11898991Y-10531079D01*
X11898991Y-10531079D02*
X11898991Y-10540603D01*
X11898991Y-10540603D02*
X11889467Y-10559650D01*
X11889467Y-10559650D02*
X11879944Y-10569174D01*
X11879944Y-10569174D02*
X11860896Y-10578698D01*
X11860896Y-10578698D02*
X11822801Y-10578698D01*
X11822801Y-10578698D02*
X11803753Y-10588222D01*
X11803753Y-10588222D02*
X11794229Y-10597746D01*
X11794229Y-10597746D02*
X11784706Y-10616793D01*
X11784706Y-10616793D02*
X11784706Y-10654889D01*
X11784706Y-10654889D02*
X11794229Y-10673936D01*
X11794229Y-10673936D02*
X11803753Y-10683460D01*
X11803753Y-10683460D02*
X11822801Y-10692984D01*
X11822801Y-10692984D02*
X11860896Y-10692984D01*
X11860896Y-10692984D02*
X11879944Y-10683460D01*
X11879944Y-10683460D02*
X11889467Y-10673936D01*
X11889467Y-10673936D02*
X11898991Y-10654889D01*
X11898991Y-10654889D02*
X11898991Y-10616793D01*
X11898991Y-10616793D02*
X11889467Y-10597746D01*
X11889467Y-10597746D02*
X11879944Y-10588222D01*
X11879944Y-10588222D02*
X11860896Y-10578698D01*
X12070420Y-10492984D02*
X12032325Y-10492984D01*
X12032325Y-10492984D02*
X12013277Y-10502508D01*
X12013277Y-10502508D02*
X12003753Y-10512031D01*
X12003753Y-10512031D02*
X11984706Y-10540603D01*
X11984706Y-10540603D02*
X11975182Y-10578698D01*
X11975182Y-10578698D02*
X11975182Y-10654889D01*
X11975182Y-10654889D02*
X11984706Y-10673936D01*
X11984706Y-10673936D02*
X11994229Y-10683460D01*
X11994229Y-10683460D02*
X12013277Y-10692984D01*
X12013277Y-10692984D02*
X12051372Y-10692984D01*
X12051372Y-10692984D02*
X12070420Y-10683460D01*
X12070420Y-10683460D02*
X12079944Y-10673936D01*
X12079944Y-10673936D02*
X12089467Y-10654889D01*
X12089467Y-10654889D02*
X12089467Y-10607270D01*
X12089467Y-10607270D02*
X12079944Y-10588222D01*
X12079944Y-10588222D02*
X12070420Y-10578698D01*
X12070420Y-10578698D02*
X12051372Y-10569174D01*
X12051372Y-10569174D02*
X12013277Y-10569174D01*
X12013277Y-10569174D02*
X11994229Y-10578698D01*
X11994229Y-10578698D02*
X11984706Y-10588222D01*
X11984706Y-10588222D02*
X11975182Y-10607270D01*
X12260896Y-10492984D02*
X12222801Y-10492984D01*
X12222801Y-10492984D02*
X12203753Y-10502508D01*
X12203753Y-10502508D02*
X12194229Y-10512031D01*
X12194229Y-10512031D02*
X12175182Y-10540603D01*
X12175182Y-10540603D02*
X12165658Y-10578698D01*
X12165658Y-10578698D02*
X12165658Y-10654889D01*
X12165658Y-10654889D02*
X12175182Y-10673936D01*
X12175182Y-10673936D02*
X12184706Y-10683460D01*
X12184706Y-10683460D02*
X12203753Y-10692984D01*
X12203753Y-10692984D02*
X12241848Y-10692984D01*
X12241848Y-10692984D02*
X12260896Y-10683460D01*
X12260896Y-10683460D02*
X12270420Y-10673936D01*
X12270420Y-10673936D02*
X12279944Y-10654889D01*
X12279944Y-10654889D02*
X12279944Y-10607270D01*
X12279944Y-10607270D02*
X12270420Y-10588222D01*
X12270420Y-10588222D02*
X12260896Y-10578698D01*
X12260896Y-10578698D02*
X12241848Y-10569174D01*
X12241848Y-10569174D02*
X12203753Y-10569174D01*
X12203753Y-10569174D02*
X12184706Y-10578698D01*
X12184706Y-10578698D02*
X12175182Y-10588222D01*
X12175182Y-10588222D02*
X12165658Y-10607270D01*
X12356134Y-10492984D02*
X12356134Y-10531079D01*
X12432325Y-10492984D02*
X12432325Y-10531079D01*
X12727563Y-10769174D02*
X12718039Y-10759650D01*
X12718039Y-10759650D02*
X12698991Y-10731079D01*
X12698991Y-10731079D02*
X12689468Y-10712031D01*
X12689468Y-10712031D02*
X12679944Y-10683460D01*
X12679944Y-10683460D02*
X12670420Y-10635841D01*
X12670420Y-10635841D02*
X12670420Y-10597746D01*
X12670420Y-10597746D02*
X12679944Y-10550127D01*
X12679944Y-10550127D02*
X12689468Y-10521555D01*
X12689468Y-10521555D02*
X12698991Y-10502508D01*
X12698991Y-10502508D02*
X12718039Y-10473936D01*
X12718039Y-10473936D02*
X12727563Y-10464412D01*
X12889468Y-10559650D02*
X12889468Y-10692984D01*
X12841848Y-10483460D02*
X12794229Y-10626317D01*
X12794229Y-10626317D02*
X12918039Y-10626317D01*
X13146610Y-10692984D02*
X13146610Y-10492984D01*
X13232325Y-10692984D02*
X13232325Y-10588222D01*
X13232325Y-10588222D02*
X13222801Y-10569174D01*
X13222801Y-10569174D02*
X13203753Y-10559650D01*
X13203753Y-10559650D02*
X13175182Y-10559650D01*
X13175182Y-10559650D02*
X13156134Y-10569174D01*
X13156134Y-10569174D02*
X13146610Y-10578698D01*
X13356134Y-10692984D02*
X13337087Y-10683460D01*
X13337087Y-10683460D02*
X13327563Y-10673936D01*
X13327563Y-10673936D02*
X13318039Y-10654889D01*
X13318039Y-10654889D02*
X13318039Y-10597746D01*
X13318039Y-10597746D02*
X13327563Y-10578698D01*
X13327563Y-10578698D02*
X13337087Y-10569174D01*
X13337087Y-10569174D02*
X13356134Y-10559650D01*
X13356134Y-10559650D02*
X13384706Y-10559650D01*
X13384706Y-10559650D02*
X13403753Y-10569174D01*
X13403753Y-10569174D02*
X13413277Y-10578698D01*
X13413277Y-10578698D02*
X13422801Y-10597746D01*
X13422801Y-10597746D02*
X13422801Y-10654889D01*
X13422801Y-10654889D02*
X13413277Y-10673936D01*
X13413277Y-10673936D02*
X13403753Y-10683460D01*
X13403753Y-10683460D02*
X13384706Y-10692984D01*
X13384706Y-10692984D02*
X13356134Y-10692984D01*
X13537087Y-10692984D02*
X13518039Y-10683460D01*
X13518039Y-10683460D02*
X13508515Y-10664412D01*
X13508515Y-10664412D02*
X13508515Y-10492984D01*
X13689468Y-10683460D02*
X13670420Y-10692984D01*
X13670420Y-10692984D02*
X13632325Y-10692984D01*
X13632325Y-10692984D02*
X13613277Y-10683460D01*
X13613277Y-10683460D02*
X13603753Y-10664412D01*
X13603753Y-10664412D02*
X13603753Y-10588222D01*
X13603753Y-10588222D02*
X13613277Y-10569174D01*
X13613277Y-10569174D02*
X13632325Y-10559650D01*
X13632325Y-10559650D02*
X13670420Y-10559650D01*
X13670420Y-10559650D02*
X13689468Y-10569174D01*
X13689468Y-10569174D02*
X13698991Y-10588222D01*
X13698991Y-10588222D02*
X13698991Y-10607270D01*
X13698991Y-10607270D02*
X13603753Y-10626317D01*
X13775182Y-10683460D02*
X13794230Y-10692984D01*
X13794230Y-10692984D02*
X13832325Y-10692984D01*
X13832325Y-10692984D02*
X13851372Y-10683460D01*
X13851372Y-10683460D02*
X13860896Y-10664412D01*
X13860896Y-10664412D02*
X13860896Y-10654889D01*
X13860896Y-10654889D02*
X13851372Y-10635841D01*
X13851372Y-10635841D02*
X13832325Y-10626317D01*
X13832325Y-10626317D02*
X13803753Y-10626317D01*
X13803753Y-10626317D02*
X13784706Y-10616793D01*
X13784706Y-10616793D02*
X13775182Y-10597746D01*
X13775182Y-10597746D02*
X13775182Y-10588222D01*
X13775182Y-10588222D02*
X13784706Y-10569174D01*
X13784706Y-10569174D02*
X13803753Y-10559650D01*
X13803753Y-10559650D02*
X13832325Y-10559650D01*
X13832325Y-10559650D02*
X13851372Y-10569174D01*
X13927563Y-10769174D02*
X13937087Y-10759650D01*
X13937087Y-10759650D02*
X13956134Y-10731079D01*
X13956134Y-10731079D02*
X13965658Y-10712031D01*
X13965658Y-10712031D02*
X13975182Y-10683460D01*
X13975182Y-10683460D02*
X13984706Y-10635841D01*
X13984706Y-10635841D02*
X13984706Y-10597746D01*
X13984706Y-10597746D02*
X13975182Y-10550127D01*
X13975182Y-10550127D02*
X13965658Y-10521555D01*
X13965658Y-10521555D02*
X13956134Y-10502508D01*
X13956134Y-10502508D02*
X13937087Y-10473936D01*
X13937087Y-10473936D02*
X13927563Y-10464412D01*
M02*
