%TF.GenerationSoftware,KiCad,Pcbnew,7.0.7*%
%TF.CreationDate,2024-07-04T01:04:12-04:00*%
%TF.ProjectId,chocV-top,63686f63-562d-4746-9f70-2e6b69636164,rev?*%
%TF.SameCoordinates,Original*%
%TF.FileFunction,Legend,Top*%
%TF.FilePolarity,Positive*%
%FSLAX46Y46*%
G04 Gerber Fmt 4.6, Leading zero omitted, Abs format (unit mm)*
G04 Created by KiCad (PCBNEW 7.0.7) date 2024-07-04 01:04:12*
%MOMM*%
%LPD*%
G01*
G04 APERTURE LIST*
%ADD10C,4.400000*%
%ADD11C,0.700000*%
G04 APERTURE END LIST*
%TO.C,G\u002A\u002A\u002A*%
G36*
X106726491Y-70061289D02*
G01*
X106739702Y-70114328D01*
X106693517Y-70218754D01*
X106588656Y-70199931D01*
X106562786Y-70177513D01*
X106514489Y-70066536D01*
X106593405Y-70003140D01*
X106625970Y-70000597D01*
X106726491Y-70061289D01*
G37*
G36*
X110682388Y-70038508D02*
G01*
X110755317Y-70135441D01*
X110758209Y-70156714D01*
X110700377Y-70226018D01*
X110682388Y-70228060D01*
X110615847Y-70166344D01*
X110606567Y-70109854D01*
X110643325Y-70031375D01*
X110682388Y-70038508D01*
G37*
G36*
X105491763Y-70218549D02*
G01*
X105533723Y-70379458D01*
X105559258Y-70577930D01*
X105560979Y-70756930D01*
X105532260Y-70858679D01*
X105460001Y-70854587D01*
X105422904Y-70795612D01*
X105386612Y-70630514D01*
X105376181Y-70431830D01*
X105390055Y-70255608D01*
X105426679Y-70157896D01*
X105440763Y-70152239D01*
X105491763Y-70218549D01*
G37*
G36*
X114915220Y-68920795D02*
G01*
X114928358Y-68970814D01*
X114954956Y-69137546D01*
X114974381Y-69198277D01*
X114967813Y-69300464D01*
X114907403Y-69318209D01*
X114802097Y-69254092D01*
X114748685Y-69147612D01*
X114708096Y-68963097D01*
X114726271Y-68881726D01*
X114812536Y-68863287D01*
X114814627Y-68863284D01*
X114915220Y-68920795D01*
G37*
G36*
X106260659Y-70138083D02*
G01*
X106352729Y-70286834D01*
X106442801Y-70468303D01*
X106502550Y-70628122D01*
X106512239Y-70685558D01*
X106476634Y-70760612D01*
X106390406Y-70725429D01*
X106284437Y-70597646D01*
X106248813Y-70535109D01*
X106159447Y-70316109D01*
X106136275Y-70151459D01*
X106183567Y-70077481D01*
X106194912Y-70076418D01*
X106260659Y-70138083D01*
G37*
G36*
X115621071Y-68768993D02*
G01*
X115749336Y-68908251D01*
X115877916Y-69080220D01*
X115968864Y-69235707D01*
X115989851Y-69306411D01*
X115955463Y-69388997D01*
X115852383Y-69336521D01*
X115680732Y-69149051D01*
X115667612Y-69132706D01*
X115510249Y-68906821D01*
X115462224Y-68763818D01*
X115526140Y-68711721D01*
X115531067Y-68711642D01*
X115621071Y-68768993D01*
G37*
G36*
X106928417Y-66241429D02*
G01*
X107160163Y-66395658D01*
X107321360Y-66641953D01*
X107334608Y-66896904D01*
X107201002Y-67141223D01*
X107112989Y-67226394D01*
X106836859Y-67384927D01*
X106562343Y-67410295D01*
X106319162Y-67301227D01*
X106275974Y-67262242D01*
X106171057Y-67118620D01*
X106143672Y-66941082D01*
X106157466Y-66789137D01*
X106186404Y-66702388D01*
X106739702Y-66702388D01*
X106802913Y-66795010D01*
X106891343Y-66816120D01*
X107014840Y-66768711D01*
X107042985Y-66702388D01*
X106979774Y-66609766D01*
X106891343Y-66588657D01*
X106767847Y-66636065D01*
X106739702Y-66702388D01*
X106186404Y-66702388D01*
X106255617Y-66494908D01*
X106438070Y-66297211D01*
X106672959Y-66208550D01*
X106928417Y-66241429D01*
G37*
G36*
X114648750Y-65445520D02*
G01*
X114809910Y-65549789D01*
X114856482Y-65604708D01*
X114982921Y-65871672D01*
X114984349Y-66148570D01*
X114862334Y-66389150D01*
X114828696Y-66423798D01*
X114583955Y-66567203D01*
X114323263Y-66563602D01*
X114063038Y-66414140D01*
X114012675Y-66367027D01*
X113833869Y-66108651D01*
X113801240Y-65906269D01*
X114321791Y-65906269D01*
X114375405Y-66032989D01*
X114473433Y-66057911D01*
X114600153Y-66004297D01*
X114625075Y-65906269D01*
X114571461Y-65779549D01*
X114473433Y-65754627D01*
X114346713Y-65808240D01*
X114321791Y-65906269D01*
X113801240Y-65906269D01*
X113793147Y-65856073D01*
X113878648Y-65637707D01*
X114078510Y-65481968D01*
X114380871Y-65417271D01*
X114409299Y-65416879D01*
X114648750Y-65445520D01*
G37*
G36*
X111165072Y-66480121D02*
G01*
X111194641Y-66601924D01*
X111209720Y-66840742D01*
X111213135Y-67133110D01*
X111220739Y-67493648D01*
X111250842Y-67793825D01*
X111314381Y-68080156D01*
X111422292Y-68399154D01*
X111585511Y-68797331D01*
X111627064Y-68893581D01*
X111684804Y-69102084D01*
X111718344Y-69377691D01*
X111728458Y-69680059D01*
X111715921Y-69968846D01*
X111681507Y-70203711D01*
X111625989Y-70344311D01*
X111598834Y-70364867D01*
X111553139Y-70334918D01*
X111529079Y-70195724D01*
X111524693Y-69930422D01*
X111528730Y-69761790D01*
X111533379Y-69429437D01*
X111513493Y-69183842D01*
X111456099Y-68960563D01*
X111348220Y-68695158D01*
X111286752Y-68560000D01*
X111163691Y-68280901D01*
X111086531Y-68057065D01*
X111044641Y-67835042D01*
X111027387Y-67561383D01*
X111024144Y-67239858D01*
X111030892Y-66854416D01*
X111052987Y-66605480D01*
X111092175Y-66478526D01*
X111118358Y-66456376D01*
X111165072Y-66480121D01*
G37*
G36*
X112658360Y-71633607D02*
G01*
X112698442Y-71728405D01*
X112724264Y-71923935D01*
X112729552Y-72078382D01*
X112702956Y-72383065D01*
X112610876Y-72686191D01*
X112483135Y-72961305D01*
X112283650Y-73311342D01*
X112085586Y-73543044D01*
X111849441Y-73681206D01*
X111535711Y-73750621D01*
X111188676Y-73773769D01*
X110851060Y-73777483D01*
X110607231Y-73756009D01*
X110400118Y-73699544D01*
X110175696Y-73599794D01*
X109914109Y-73447722D01*
X109737803Y-73271273D01*
X109588084Y-73015168D01*
X109477895Y-72748793D01*
X109407339Y-72491296D01*
X109393433Y-72368653D01*
X109405866Y-72185972D01*
X109415768Y-72161493D01*
X109582985Y-72161493D01*
X109604428Y-72388955D01*
X109667848Y-72699581D01*
X109784161Y-72992957D01*
X109912547Y-73185075D01*
X110042972Y-73284057D01*
X110251787Y-73407077D01*
X110370674Y-73467871D01*
X110761707Y-73590631D01*
X111190586Y-73618024D01*
X111603101Y-73552327D01*
X111935790Y-73402175D01*
X112166038Y-73165778D01*
X112360959Y-72802971D01*
X112508592Y-72337175D01*
X112530651Y-72237314D01*
X112553632Y-72014100D01*
X112495115Y-71898934D01*
X112338046Y-71880609D01*
X112082196Y-71942633D01*
X111857099Y-71991827D01*
X111520589Y-72039117D01*
X111112871Y-72079804D01*
X110674148Y-72109191D01*
X110644478Y-72110647D01*
X109582985Y-72161493D01*
X109415768Y-72161493D01*
X109457957Y-72057196D01*
X109571892Y-71973074D01*
X109769855Y-71924355D01*
X110074034Y-71901789D01*
X110506614Y-71896125D01*
X110526724Y-71896120D01*
X111052424Y-71885301D01*
X111477506Y-71849435D01*
X111851680Y-71783403D01*
X112015277Y-71742864D01*
X112294941Y-71675506D01*
X112519230Y-71635498D01*
X112647395Y-71629762D01*
X112658360Y-71633607D01*
G37*
G36*
X107751470Y-65539661D02*
G01*
X108161597Y-65604957D01*
X108440069Y-65689652D01*
X108606849Y-65810467D01*
X108681899Y-65984122D01*
X108685183Y-66227339D01*
X108675514Y-66313638D01*
X108548971Y-66883426D01*
X108332130Y-67407248D01*
X108042502Y-67852131D01*
X107697596Y-68185099D01*
X107672120Y-68203166D01*
X107366393Y-68352177D01*
X106955449Y-68464964D01*
X106482480Y-68536465D01*
X105990675Y-68561616D01*
X105523223Y-68535355D01*
X105248455Y-68487265D01*
X104956621Y-68380721D01*
X104636910Y-68208278D01*
X104349333Y-68006447D01*
X104167336Y-67829530D01*
X104039442Y-67560836D01*
X104010149Y-67336859D01*
X104010972Y-67332775D01*
X104161791Y-67332775D01*
X104231617Y-67550172D01*
X104426010Y-67780147D01*
X104722345Y-67998818D01*
X104870614Y-68080962D01*
X105303784Y-68273951D01*
X105697816Y-68380018D01*
X106101371Y-68404177D01*
X106563106Y-68351441D01*
X106876560Y-68287639D01*
X107381628Y-68116623D01*
X107778888Y-67848404D01*
X108088620Y-67466948D01*
X108217677Y-67227316D01*
X108351193Y-66887815D01*
X108438593Y-66548570D01*
X108473931Y-66248127D01*
X108451259Y-66025030D01*
X108414408Y-65952188D01*
X108266162Y-65857664D01*
X108008588Y-65771998D01*
X107683999Y-65704753D01*
X107334706Y-65665490D01*
X107119047Y-65659448D01*
X106720080Y-65704438D01*
X106280285Y-65836128D01*
X105777157Y-66062769D01*
X105299105Y-66326689D01*
X104880594Y-66592330D01*
X104543055Y-66846573D01*
X104303003Y-67074807D01*
X104176954Y-67262421D01*
X104161791Y-67332775D01*
X104010972Y-67332775D01*
X104066989Y-67054848D01*
X104243180Y-66780972D01*
X104547227Y-66506871D01*
X104987638Y-66224190D01*
X105325274Y-66044778D01*
X105890899Y-65783087D01*
X106381981Y-65611128D01*
X106839476Y-65520373D01*
X107304343Y-65502295D01*
X107751470Y-65539661D01*
G37*
G36*
X114627173Y-64765833D02*
G01*
X115118214Y-64812294D01*
X115512499Y-64897606D01*
X115836430Y-65028668D01*
X116116408Y-65212379D01*
X116261849Y-65338949D01*
X116412863Y-65489607D01*
X116488335Y-65612409D01*
X116506508Y-65764936D01*
X116485622Y-66004773D01*
X116482221Y-66034610D01*
X116412892Y-66396445D01*
X116281602Y-66667317D01*
X116058707Y-66890033D01*
X115754861Y-67084918D01*
X115302184Y-67323072D01*
X114921882Y-67475154D01*
X114568284Y-67550279D01*
X114195720Y-67557562D01*
X113758519Y-67506119D01*
X113696002Y-67495837D01*
X113272406Y-67364269D01*
X112860071Y-67131409D01*
X112516682Y-66833024D01*
X112406622Y-66696378D01*
X112259498Y-66420365D01*
X112148054Y-66084931D01*
X112082419Y-65740128D01*
X112076586Y-65557215D01*
X112225707Y-65557215D01*
X112246263Y-65792537D01*
X112375136Y-66260995D01*
X112632630Y-66668260D01*
X113001145Y-66993322D01*
X113428290Y-67203518D01*
X114019123Y-67337023D01*
X114599208Y-67321991D01*
X115182159Y-67157627D01*
X115331387Y-67092434D01*
X115723039Y-66890500D01*
X115990738Y-66698182D01*
X116157851Y-66489154D01*
X116247747Y-66237090D01*
X116276713Y-66027448D01*
X116291260Y-65787968D01*
X116266523Y-65640607D01*
X116175864Y-65526370D01*
X115992645Y-65386263D01*
X115984553Y-65380401D01*
X115716608Y-65210694D01*
X115432797Y-65088513D01*
X115103966Y-65008091D01*
X114700959Y-64963662D01*
X114194620Y-64949457D01*
X113824467Y-64953133D01*
X113379485Y-64964905D01*
X113058014Y-64982422D01*
X112831941Y-65009237D01*
X112673153Y-65048907D01*
X112553535Y-65104985D01*
X112535512Y-65116126D01*
X112344595Y-65251787D01*
X112249043Y-65380772D01*
X112225707Y-65557215D01*
X112076586Y-65557215D01*
X112072720Y-65436008D01*
X112114146Y-65250912D01*
X112244120Y-65097091D01*
X112470241Y-64947034D01*
X112553820Y-64906672D01*
X112716300Y-64843306D01*
X112889075Y-64799481D01*
X113103794Y-64771830D01*
X113392101Y-64756983D01*
X113785645Y-64751571D01*
X114012976Y-64751325D01*
X114627173Y-64765833D01*
G37*
G36*
X101948497Y-70328840D02*
G01*
X101962985Y-70384597D01*
X101909647Y-70481643D01*
X101777594Y-70620116D01*
X101739276Y-70653551D01*
X101544936Y-70890919D01*
X101443837Y-71206939D01*
X101432988Y-71618269D01*
X101489938Y-72041614D01*
X101589884Y-72444153D01*
X101741583Y-72794168D01*
X101969242Y-73134424D01*
X102297066Y-73507688D01*
X102351947Y-73564617D01*
X102683284Y-73905373D01*
X102721194Y-73564179D01*
X102732263Y-73357756D01*
X102697491Y-73193360D01*
X102597141Y-73013223D01*
X102475103Y-72843881D01*
X102271838Y-72523546D01*
X102197693Y-72278233D01*
X102252952Y-72109333D01*
X102314522Y-72061682D01*
X102407493Y-71932955D01*
X102396017Y-71730702D01*
X102289107Y-71482000D01*
X102095777Y-71213929D01*
X101997115Y-71108191D01*
X101824206Y-70909082D01*
X101745284Y-70766627D01*
X101755919Y-70699008D01*
X101851686Y-70724402D01*
X102028155Y-70860989D01*
X102051911Y-70883210D01*
X102305720Y-71180387D01*
X102477042Y-71496703D01*
X102556338Y-71801005D01*
X102534067Y-72062139D01*
X102455174Y-72200118D01*
X102396728Y-72287850D01*
X102405607Y-72384775D01*
X102493052Y-72534399D01*
X102569381Y-72642059D01*
X102742530Y-72857671D01*
X102865445Y-72947692D01*
X102955649Y-72922193D01*
X102986567Y-72881791D01*
X103104778Y-72813266D01*
X103280145Y-72834685D01*
X103468149Y-72923487D01*
X103624272Y-73057111D01*
X103703997Y-73212996D01*
X103706866Y-73246827D01*
X103670375Y-73331815D01*
X103578053Y-73298880D01*
X103455622Y-73157944D01*
X103448465Y-73147164D01*
X103319804Y-72992952D01*
X103202675Y-72974879D01*
X103067804Y-73076759D01*
X102995072Y-73210470D01*
X102957189Y-73445791D01*
X102948657Y-73721237D01*
X102937059Y-74024124D01*
X102903855Y-74202905D01*
X102864992Y-74246567D01*
X102778603Y-74195922D01*
X102614241Y-74059687D01*
X102399213Y-73861417D01*
X102256232Y-73721471D01*
X101834891Y-73230184D01*
X101519169Y-72714294D01*
X101313119Y-72192361D01*
X101220794Y-71682945D01*
X101246246Y-71204606D01*
X101393528Y-70775901D01*
X101559226Y-70529417D01*
X101719353Y-70377310D01*
X101860048Y-70306527D01*
X101948497Y-70328840D01*
G37*
G36*
X111088733Y-53702553D02*
G01*
X112043072Y-53851930D01*
X112939611Y-54099765D01*
X113462266Y-54307078D01*
X113709753Y-54409696D01*
X114040447Y-54534454D01*
X114392785Y-54658348D01*
X114481675Y-54688020D01*
X115201935Y-54953506D01*
X115784896Y-55231980D01*
X116244797Y-55530765D01*
X116437809Y-55694504D01*
X116634703Y-55871953D01*
X116794335Y-56003754D01*
X116874127Y-56057009D01*
X116967179Y-56139889D01*
X117116944Y-56325955D01*
X117304523Y-56586946D01*
X117511016Y-56894601D01*
X117717524Y-57220660D01*
X117905150Y-57536862D01*
X118054993Y-57814946D01*
X118069852Y-57845055D01*
X118229753Y-58142563D01*
X118402778Y-58416946D01*
X118553718Y-58612776D01*
X118565191Y-58624834D01*
X118706436Y-58783599D01*
X118787584Y-58902461D01*
X118795224Y-58927452D01*
X118856896Y-59037877D01*
X119017146Y-59189188D01*
X119238822Y-59354643D01*
X119484774Y-59507505D01*
X119717851Y-59621033D01*
X119797747Y-59649025D01*
X120029135Y-59723878D01*
X120205738Y-59791923D01*
X120255985Y-59817300D01*
X120466061Y-59917548D01*
X120738667Y-60007260D01*
X120991963Y-60061297D01*
X121069851Y-60067295D01*
X121259403Y-60068813D01*
X121062072Y-60239033D01*
X120890006Y-60414095D01*
X120702074Y-60645629D01*
X120525585Y-60894361D01*
X120387851Y-61121012D01*
X120316179Y-61286305D01*
X120311642Y-61318318D01*
X120265164Y-61458946D01*
X120150515Y-61638870D01*
X120122090Y-61674126D01*
X120018325Y-61808652D01*
X119955438Y-61935065D01*
X119940182Y-62072409D01*
X119979312Y-62239732D01*
X120079581Y-62456078D01*
X120247744Y-62740494D01*
X120490554Y-63112026D01*
X120786966Y-63549039D01*
X120878173Y-63751939D01*
X120900697Y-63934925D01*
X120863188Y-64054301D01*
X120757940Y-64144823D01*
X120549851Y-64232752D01*
X120463284Y-64262168D01*
X120233547Y-64348094D01*
X120071584Y-64427618D01*
X120020838Y-64471148D01*
X119948971Y-64510510D01*
X119930553Y-64502356D01*
X119900908Y-64541010D01*
X119906007Y-64686391D01*
X119915330Y-64748301D01*
X119963200Y-65112601D01*
X119955241Y-65358105D01*
X119888697Y-65508068D01*
X119818806Y-65562227D01*
X119483578Y-65740956D01*
X119264729Y-65869758D01*
X119142982Y-65966468D01*
X119099056Y-66048922D01*
X119113672Y-66134954D01*
X119139756Y-66190407D01*
X119211532Y-66384718D01*
X119269154Y-66637831D01*
X119304567Y-66895462D01*
X119309718Y-67103323D01*
X119288691Y-67194203D01*
X119189786Y-67217273D01*
X118993470Y-67124766D01*
X118988779Y-67121877D01*
X118816996Y-67022701D01*
X118704076Y-66970243D01*
X118691498Y-66967761D01*
X118651110Y-67030540D01*
X118644760Y-67176559D01*
X118668155Y-67342341D01*
X118716998Y-67464410D01*
X118725793Y-67474569D01*
X118734254Y-67566904D01*
X118641700Y-67675056D01*
X118490251Y-67764769D01*
X118323428Y-67801791D01*
X118209693Y-67837061D01*
X118188657Y-67877612D01*
X118127245Y-67944879D01*
X118074926Y-67953433D01*
X117970484Y-67999661D01*
X117989297Y-68104502D01*
X118011507Y-68130114D01*
X118063337Y-68224633D01*
X118143506Y-68414724D01*
X118205303Y-68578721D01*
X118273137Y-68820280D01*
X118308669Y-69096235D01*
X118311544Y-69431920D01*
X118281407Y-69852673D01*
X118217903Y-70383828D01*
X118175821Y-70682985D01*
X118104155Y-71016771D01*
X117991865Y-71364106D01*
X117856067Y-71684785D01*
X117713875Y-71938605D01*
X117582406Y-72085364D01*
X117577442Y-72088544D01*
X117518107Y-72192628D01*
X117506269Y-72282523D01*
X117479871Y-72449165D01*
X117408576Y-72720843D01*
X117304235Y-73061971D01*
X117178694Y-73436959D01*
X117043804Y-73810221D01*
X116911413Y-74146169D01*
X116808436Y-74378427D01*
X116507697Y-74917839D01*
X116117683Y-75490996D01*
X115675912Y-76048460D01*
X115219900Y-76540796D01*
X115036564Y-76713215D01*
X114772436Y-76955502D01*
X114614297Y-77117565D01*
X114550138Y-77214428D01*
X114567949Y-77261110D01*
X114592556Y-77268607D01*
X114818957Y-77365995D01*
X114921720Y-77550796D01*
X114928358Y-77629881D01*
X114968345Y-77773757D01*
X115038526Y-77810149D01*
X115135669Y-77881022D01*
X115217803Y-78074186D01*
X115277072Y-78360459D01*
X115305620Y-78710659D01*
X115307040Y-78807632D01*
X115290993Y-79073053D01*
X115247131Y-79429178D01*
X115182486Y-79839048D01*
X115104091Y-80265703D01*
X115018977Y-80672185D01*
X114934177Y-81021536D01*
X114856724Y-81276795D01*
X114821192Y-81361037D01*
X114620381Y-81639576D01*
X114306763Y-81942366D01*
X113911824Y-82247029D01*
X113467051Y-82531189D01*
X113003931Y-82772469D01*
X112615821Y-82928329D01*
X111915845Y-83108592D01*
X111110613Y-83217987D01*
X110229778Y-83254882D01*
X109302998Y-83217646D01*
X108644204Y-83146791D01*
X107771956Y-82999361D01*
X106995743Y-82808912D01*
X106325789Y-82579776D01*
X105772317Y-82316288D01*
X105345549Y-82022779D01*
X105055709Y-81703584D01*
X104995332Y-81600236D01*
X104933043Y-81458725D01*
X104890685Y-81301040D01*
X104864871Y-81095925D01*
X104852214Y-80812125D01*
X104849329Y-80418382D01*
X104849948Y-80258394D01*
X104860115Y-79722930D01*
X104887538Y-79317420D01*
X104937654Y-79020638D01*
X105015898Y-78811358D01*
X105127707Y-78668353D01*
X105228217Y-78603069D01*
X105760174Y-78603069D01*
X105767949Y-78701045D01*
X105811518Y-78838691D01*
X105927661Y-78957964D01*
X106148791Y-79089890D01*
X106203596Y-79118060D01*
X106578136Y-79267035D01*
X106929608Y-79334146D01*
X106961805Y-79335538D01*
X107232802Y-79354365D01*
X107481253Y-79390219D01*
X107535821Y-79402388D01*
X107678270Y-79421423D01*
X107927456Y-79437855D01*
X108254542Y-79451343D01*
X108630693Y-79461542D01*
X109027072Y-79468110D01*
X109414844Y-79470703D01*
X109765173Y-79468979D01*
X110049223Y-79462595D01*
X110238157Y-79451207D01*
X110303284Y-79435314D01*
X110271423Y-79341498D01*
X110223781Y-79243867D01*
X110183303Y-79186921D01*
X110116919Y-79146991D01*
X110000658Y-79121352D01*
X109810547Y-79107278D01*
X109522613Y-79102041D01*
X109112884Y-79102916D01*
X108991692Y-79103747D01*
X108279875Y-79099411D01*
X107696655Y-79072904D01*
X107220194Y-79021174D01*
X106828656Y-78941170D01*
X106500206Y-78829840D01*
X106284776Y-78725408D01*
X106017931Y-78582499D01*
X105857670Y-78515232D01*
X105779811Y-78522469D01*
X105760174Y-78603069D01*
X105228217Y-78603069D01*
X105278519Y-78570396D01*
X105282799Y-78568358D01*
X105466934Y-78436602D01*
X105526087Y-78302985D01*
X105553392Y-78142804D01*
X105925009Y-78142804D01*
X105942198Y-78245997D01*
X106106279Y-78362436D01*
X106114179Y-78366626D01*
X106306267Y-78458386D01*
X106401431Y-78458649D01*
X106433454Y-78352791D01*
X106436418Y-78227164D01*
X106429498Y-78184812D01*
X106663881Y-78184812D01*
X106668999Y-78443323D01*
X106695107Y-78592509D01*
X106758330Y-78674609D01*
X106872388Y-78730903D01*
X107010941Y-78758149D01*
X107274079Y-78785149D01*
X107634757Y-78810073D01*
X108065926Y-78831090D01*
X108540539Y-78846367D01*
X108597314Y-78847688D01*
X109072823Y-78862013D01*
X109503780Y-78882003D01*
X109864231Y-78905896D01*
X110128219Y-78931934D01*
X110269790Y-78958356D01*
X110277620Y-78961615D01*
X110419286Y-79105043D01*
X110489145Y-79295647D01*
X110571140Y-79522612D01*
X110712069Y-79756014D01*
X110742271Y-79794011D01*
X110823508Y-79895959D01*
X110879963Y-79994672D01*
X110916212Y-80119027D01*
X110936833Y-80297904D01*
X110946403Y-80560180D01*
X110949497Y-80934734D01*
X110949910Y-81104153D01*
X110954726Y-81496491D01*
X110966459Y-81837832D01*
X110983503Y-82097799D01*
X111004252Y-82246016D01*
X111011251Y-82264627D01*
X111138677Y-82350827D01*
X111297074Y-82334453D01*
X111410684Y-82226717D01*
X111445408Y-82081231D01*
X111470509Y-81843302D01*
X111478896Y-81639105D01*
X111492621Y-81213074D01*
X111520584Y-80770070D01*
X111559264Y-80343053D01*
X111605141Y-79964978D01*
X111654697Y-79668805D01*
X111704410Y-79487491D01*
X111709961Y-79475528D01*
X111852220Y-79292793D01*
X112002785Y-79178387D01*
X112161146Y-79034283D01*
X112198806Y-78858830D01*
X112200273Y-78852936D01*
X112426269Y-78852936D01*
X112490318Y-78926894D01*
X112675859Y-78926709D01*
X112972987Y-78853929D01*
X113371794Y-78710101D01*
X113391817Y-78702045D01*
X113715828Y-78546635D01*
X114035199Y-78351425D01*
X114320826Y-78139269D01*
X114543603Y-77933020D01*
X114674424Y-77755533D01*
X114696664Y-77677463D01*
X114671476Y-77544438D01*
X114625075Y-77506866D01*
X114556843Y-77567851D01*
X114549254Y-77614765D01*
X114485976Y-77767746D01*
X114323168Y-77944982D01*
X114101369Y-78112623D01*
X113861120Y-78236822D01*
X113768107Y-78266968D01*
X113542813Y-78328292D01*
X113368816Y-78382014D01*
X113336120Y-78394002D01*
X113209812Y-78439931D01*
X113066084Y-78477006D01*
X112855666Y-78519401D01*
X112598345Y-78610266D01*
X112451192Y-78753044D01*
X112426269Y-78852936D01*
X112200273Y-78852936D01*
X112245082Y-78672908D01*
X112356851Y-78486560D01*
X112493531Y-78358788D01*
X112558955Y-78335261D01*
X112866110Y-78281770D01*
X113121048Y-78195080D01*
X113288602Y-78090291D01*
X113336120Y-78001578D01*
X113316555Y-77922331D01*
X113242648Y-77895605D01*
X113091580Y-77924557D01*
X112840533Y-78012348D01*
X112615821Y-78101289D01*
X111893598Y-78322758D01*
X111079670Y-78445635D01*
X110198336Y-78468992D01*
X109273896Y-78391900D01*
X108521493Y-78257690D01*
X108124513Y-78163532D01*
X107700852Y-78052455D01*
X107296281Y-77937381D01*
X106956574Y-77831234D01*
X106758657Y-77759974D01*
X106703282Y-77781700D01*
X106673113Y-77915692D01*
X106663882Y-78181075D01*
X106663881Y-78184812D01*
X106429498Y-78184812D01*
X106404083Y-78029271D01*
X106299216Y-77959170D01*
X106110027Y-78011125D01*
X106052329Y-78040280D01*
X105925009Y-78142804D01*
X105553392Y-78142804D01*
X105554823Y-78134412D01*
X105584594Y-78067147D01*
X105712510Y-77956304D01*
X105920677Y-77842770D01*
X106141766Y-77758722D01*
X106281011Y-77734328D01*
X106414470Y-77708738D01*
X106411422Y-77639656D01*
X106276665Y-77538618D01*
X106178436Y-77487750D01*
X105974810Y-77352656D01*
X105757399Y-77152899D01*
X105672218Y-77055830D01*
X105480329Y-76852922D01*
X105334632Y-76783059D01*
X105293712Y-76788279D01*
X105144460Y-76771269D01*
X105029345Y-76695528D01*
X104855672Y-76599138D01*
X104716865Y-76584808D01*
X104584978Y-76570530D01*
X104481171Y-76464421D01*
X104404904Y-76318271D01*
X104256836Y-76015383D01*
X104134394Y-75827617D01*
X104009668Y-75728217D01*
X103854743Y-75690427D01*
X103745493Y-75686208D01*
X103491087Y-75647016D01*
X103170416Y-75524482D01*
X102855581Y-75363969D01*
X102259283Y-74954993D01*
X101771205Y-74445358D01*
X101401957Y-73846879D01*
X101314309Y-73647728D01*
X101197703Y-73365728D01*
X101088556Y-73115210D01*
X101013440Y-72956364D01*
X100962234Y-72795874D01*
X100908316Y-72526689D01*
X100857308Y-72191525D01*
X100814834Y-71833099D01*
X100786517Y-71494129D01*
X100785076Y-71447397D01*
X101015805Y-71447397D01*
X101025493Y-71615503D01*
X101049055Y-71695838D01*
X101109897Y-71927079D01*
X101128955Y-72107391D01*
X101156533Y-72309262D01*
X101229915Y-72608176D01*
X101335074Y-72961836D01*
X101457985Y-73327947D01*
X101584621Y-73664210D01*
X101700955Y-73928331D01*
X101775492Y-74057015D01*
X101951818Y-74278135D01*
X102140807Y-74494059D01*
X102143452Y-74496892D01*
X102271736Y-74647715D01*
X102339110Y-74753543D01*
X102342090Y-74766617D01*
X102404527Y-74825333D01*
X102571572Y-74933985D01*
X102812825Y-75073454D01*
X102938699Y-75141815D01*
X103257740Y-75303442D01*
X103500643Y-75399788D01*
X103719447Y-75446605D01*
X103966190Y-75459646D01*
X103988878Y-75459702D01*
X104389959Y-75481342D01*
X104684016Y-75557701D01*
X104910938Y-75705933D01*
X105109552Y-75941662D01*
X105447745Y-76393801D01*
X105791673Y-76790738D01*
X106123475Y-77115924D01*
X106425291Y-77352809D01*
X106679258Y-77484845D01*
X106798852Y-77506866D01*
X106955597Y-77540495D01*
X107008866Y-77572940D01*
X107141849Y-77641342D01*
X107405289Y-77730254D01*
X107780228Y-77834303D01*
X108247707Y-77948113D01*
X108635224Y-78033995D01*
X109329002Y-78164964D01*
X109931969Y-78236925D01*
X110492075Y-78252030D01*
X111057272Y-78212430D01*
X111440597Y-78159879D01*
X111836909Y-78076712D01*
X112266864Y-77954869D01*
X112433519Y-77894690D01*
X113563582Y-77894690D01*
X113612942Y-78013444D01*
X113741919Y-78031362D01*
X113921863Y-77953781D01*
X114119116Y-77791194D01*
X114359702Y-77544776D01*
X114155569Y-77521207D01*
X113936648Y-77545988D01*
X113732225Y-77646938D01*
X113593791Y-77791571D01*
X113563582Y-77894690D01*
X112433519Y-77894690D01*
X112640116Y-77820088D01*
X112653732Y-77814302D01*
X112938948Y-77694205D01*
X113183987Y-77594811D01*
X113344519Y-77534006D01*
X113364796Y-77527370D01*
X113615481Y-77416238D01*
X113942756Y-77220596D01*
X114315679Y-76962856D01*
X114703309Y-76665432D01*
X115074703Y-76350736D01*
X115355464Y-76085446D01*
X115499097Y-75917530D01*
X115698208Y-75654098D01*
X115929512Y-75329218D01*
X116169726Y-74976955D01*
X116395564Y-74631379D01*
X116583742Y-74326555D01*
X116700424Y-74117646D01*
X116785067Y-73915153D01*
X116824962Y-73748815D01*
X116825377Y-73738541D01*
X116850656Y-73608499D01*
X116916914Y-73377546D01*
X117011951Y-73086784D01*
X117057193Y-72957612D01*
X117164785Y-72615067D01*
X117253197Y-72235106D01*
X117323658Y-71802103D01*
X117361159Y-71452026D01*
X117592061Y-71452026D01*
X117598496Y-71578198D01*
X117606867Y-71592836D01*
X117670812Y-71532922D01*
X117759619Y-71388388D01*
X117761725Y-71384328D01*
X117837141Y-71167223D01*
X117912437Y-70816010D01*
X117984683Y-70348196D01*
X118050945Y-69781291D01*
X118078557Y-69492634D01*
X118098590Y-69181750D01*
X118085011Y-68954772D01*
X118028027Y-68745847D01*
X117934789Y-68525918D01*
X117830247Y-68305135D01*
X117751466Y-68152748D01*
X117718971Y-68105075D01*
X117710629Y-68176413D01*
X117703426Y-68372503D01*
X117697973Y-68666452D01*
X117694880Y-69031371D01*
X117694447Y-69185522D01*
X117688850Y-69648277D01*
X117674576Y-70125750D01*
X117653737Y-70563864D01*
X117628442Y-70908543D01*
X117626396Y-70929403D01*
X117601694Y-71224437D01*
X117592061Y-71452026D01*
X117361159Y-71452026D01*
X117377398Y-71300430D01*
X117415648Y-70714460D01*
X117439639Y-70028565D01*
X117450600Y-69227119D01*
X117449763Y-68294493D01*
X117447513Y-68000000D01*
X117441082Y-67417721D01*
X117432797Y-66884034D01*
X117423141Y-66417892D01*
X117412597Y-66038246D01*
X117401648Y-65764050D01*
X117390777Y-65614255D01*
X117386172Y-65592686D01*
X117288113Y-65544331D01*
X117137181Y-65527164D01*
X116866717Y-65471629D01*
X116700152Y-65305690D01*
X116638745Y-65038135D01*
X116576727Y-64761183D01*
X116431504Y-64538063D01*
X116234021Y-64407876D01*
X116125667Y-64389851D01*
X115936329Y-64315258D01*
X115809259Y-64157139D01*
X115714755Y-64010464D01*
X115645986Y-63975073D01*
X115571675Y-64059670D01*
X115471422Y-64251165D01*
X115335020Y-64451268D01*
X115195251Y-64505092D01*
X115047568Y-64411343D01*
X114887427Y-64168729D01*
X114838324Y-64071003D01*
X114681945Y-63773021D01*
X114504107Y-63474444D01*
X114400544Y-63320374D01*
X114170149Y-63002323D01*
X114170149Y-63535161D01*
X114165992Y-63817572D01*
X114138601Y-64014579D01*
X114065604Y-64138504D01*
X113924625Y-64201668D01*
X113693289Y-64216392D01*
X113349221Y-64194997D01*
X113026623Y-64164868D01*
X112637135Y-64131468D01*
X112273705Y-64107728D01*
X111979186Y-64096007D01*
X111807232Y-64097769D01*
X111559226Y-64084573D01*
X111441470Y-64012158D01*
X111381249Y-63964547D01*
X111314649Y-64042511D01*
X111281994Y-64109477D01*
X111187866Y-64255819D01*
X111098213Y-64314030D01*
X111027124Y-64250479D01*
X110910365Y-64079721D01*
X110767171Y-63831598D01*
X110680815Y-63666435D01*
X110509210Y-63345874D01*
X110384744Y-63165451D01*
X110300717Y-63123541D01*
X110250425Y-63218521D01*
X110227167Y-63448767D01*
X110224254Y-63555821D01*
X110207559Y-63852787D01*
X110173419Y-64150011D01*
X110165182Y-64200299D01*
X110111640Y-64503582D01*
X109202835Y-64552430D01*
X108741881Y-64584217D01*
X108283576Y-64628248D01*
X107855390Y-64680592D01*
X107484791Y-64737320D01*
X107199246Y-64794500D01*
X107026224Y-64848201D01*
X106993983Y-64868505D01*
X106913964Y-64853884D01*
X106784094Y-64745292D01*
X106724550Y-64678734D01*
X106595469Y-64529722D01*
X106534459Y-64490238D01*
X106515719Y-64550719D01*
X106514279Y-64600794D01*
X106471824Y-64850631D01*
X106368514Y-65093615D01*
X106232115Y-65275690D01*
X106136344Y-65336593D01*
X105964515Y-65334828D01*
X105778038Y-65259525D01*
X105637763Y-65142998D01*
X105599532Y-65051536D01*
X105563884Y-64921438D01*
X105477672Y-64723600D01*
X105364489Y-64502241D01*
X105247928Y-64301582D01*
X105151581Y-64165841D01*
X105109552Y-64133174D01*
X105028337Y-64200592D01*
X104945194Y-64411355D01*
X104862405Y-64757225D01*
X104782255Y-65229966D01*
X104758438Y-65399973D01*
X104710257Y-65711722D01*
X104660176Y-65957674D01*
X104615462Y-66105514D01*
X104593433Y-66133731D01*
X104492602Y-66090809D01*
X104340440Y-65987031D01*
X104334122Y-65982090D01*
X104186875Y-65877145D01*
X104094180Y-65830584D01*
X104091908Y-65830448D01*
X104072516Y-65898916D01*
X104071648Y-66077056D01*
X104086196Y-66287731D01*
X104103129Y-66539707D01*
X104102637Y-66728880D01*
X104088988Y-66803441D01*
X103997715Y-66864139D01*
X103818388Y-66945834D01*
X103744776Y-66974402D01*
X103550769Y-67060136D01*
X103458398Y-67163363D01*
X103423188Y-67342154D01*
X103418471Y-67400453D01*
X103385242Y-67614886D01*
X103305938Y-67732184D01*
X103191008Y-67791206D01*
X102957960Y-67890873D01*
X102845327Y-67988753D01*
X102827822Y-68125077D01*
X102869344Y-68302951D01*
X102920026Y-68514932D01*
X102980862Y-68821522D01*
X103041069Y-69167140D01*
X103058964Y-69280299D01*
X103110451Y-69602511D01*
X103158514Y-69880815D01*
X103195427Y-70071304D01*
X103205683Y-70114328D01*
X103360794Y-70732120D01*
X103459646Y-71253737D01*
X103501791Y-71670136D01*
X103486784Y-71972271D01*
X103414179Y-72151098D01*
X103308578Y-72199403D01*
X103187493Y-72151988D01*
X103054115Y-72001715D01*
X102901064Y-71736541D01*
X102720956Y-71344422D01*
X102591164Y-71029019D01*
X102394751Y-70563758D01*
X102225828Y-70229124D01*
X102073200Y-70009120D01*
X101925672Y-69887748D01*
X101772049Y-69849012D01*
X101765379Y-69848955D01*
X101586709Y-69912574D01*
X101422614Y-70107968D01*
X101268906Y-70441940D01*
X101133504Y-70875827D01*
X101050493Y-71213618D01*
X101015805Y-71447397D01*
X100785076Y-71447397D01*
X100777982Y-71217331D01*
X100779040Y-71175821D01*
X100759103Y-71006620D01*
X100685004Y-70969974D01*
X100523049Y-70937995D01*
X100410574Y-70787016D01*
X100370746Y-70559970D01*
X100342617Y-70364570D01*
X100260572Y-70303881D01*
X100155400Y-70233836D01*
X100034380Y-70040480D01*
X99912482Y-69748977D01*
X99888408Y-69678358D01*
X99794095Y-69578215D01*
X99585002Y-69545714D01*
X99574339Y-69545672D01*
X99276490Y-69491576D01*
X99014264Y-69349946D01*
X98857461Y-69172421D01*
X98838278Y-69054571D01*
X98830133Y-68809262D01*
X98832961Y-68460268D01*
X98846700Y-68031364D01*
X98861312Y-67723606D01*
X98888500Y-67195660D01*
X98916134Y-66630720D01*
X98941635Y-66083415D01*
X98962420Y-65608372D01*
X98969531Y-65433165D01*
X98992664Y-65016675D01*
X99027130Y-64609828D01*
X99068148Y-64261019D01*
X99108135Y-64030478D01*
X99165415Y-63710521D01*
X99209460Y-63334134D01*
X99226997Y-63065267D01*
X99240822Y-62793683D01*
X99259886Y-62583907D01*
X99280136Y-62480169D01*
X99280726Y-62479147D01*
X99317495Y-62384296D01*
X99384550Y-62181568D01*
X99469597Y-61908627D01*
X99501760Y-61802073D01*
X99709415Y-61251202D01*
X100010617Y-60644737D01*
X100380643Y-60021990D01*
X100794772Y-59422275D01*
X101228280Y-58884905D01*
X101545831Y-58551642D01*
X101741770Y-58348887D01*
X101894470Y-58164301D01*
X101962594Y-58054296D01*
X102041245Y-57914326D01*
X102193136Y-57689001D01*
X102394724Y-57409706D01*
X102622465Y-57107829D01*
X102852819Y-56814753D01*
X103062241Y-56561866D01*
X103186458Y-56422706D01*
X103849793Y-55818097D01*
X104650466Y-55269819D01*
X105589712Y-54777188D01*
X106668765Y-54339518D01*
X107346269Y-54114557D01*
X107463662Y-54082109D01*
X107692190Y-54021810D01*
X107995988Y-53943050D01*
X108256120Y-53876374D01*
X109157535Y-53711655D01*
X110114313Y-53654755D01*
X111088733Y-53702553D01*
G37*
%TD*%
D10*
%TO.C,*%
X110000000Y-88000000D03*
%TD*%
%LPC*%
D11*
%TO.C,H1*%
X94350000Y-93000000D03*
X94833274Y-91833274D03*
X94833274Y-94166726D03*
X96000000Y-91350000D03*
D10*
X96000000Y-93000000D03*
D11*
X96000000Y-94650000D03*
X97166726Y-91833274D03*
X97166726Y-94166726D03*
X97650000Y-93000000D03*
%TD*%
%TO.C,H2*%
X121350000Y-74000000D03*
X121833274Y-72833274D03*
X121833274Y-75166726D03*
X123000000Y-72350000D03*
D10*
X123000000Y-74100000D03*
D11*
X123000000Y-75650000D03*
X124166726Y-72833274D03*
X124166726Y-75166726D03*
X124650000Y-74000000D03*
%TD*%
%TO.C,H4*%
X95350000Y-74100000D03*
X95833274Y-72933274D03*
X95833274Y-75266726D03*
X97000000Y-72450000D03*
D10*
X97000000Y-74100000D03*
D11*
X97000000Y-75750000D03*
X98166726Y-72933274D03*
X98166726Y-75266726D03*
X98650000Y-74100000D03*
%TD*%
%TO.C,H6*%
X122350000Y-93000000D03*
X122833274Y-91833274D03*
X122833274Y-94166726D03*
X124000000Y-91350000D03*
D10*
X124000000Y-93000000D03*
D11*
X124000000Y-94650000D03*
X125166726Y-91833274D03*
X125166726Y-94166726D03*
X125650000Y-93000000D03*
%TD*%
%LPD*%
M02*
